<?xml version="1.0" encoding="UTF-8"?> <!-- Generator: Adobe Illustrator 23.1.1, SVG Export Plug-In . SVG Version: 6.00 Build 0) --> <svg xmlns="http://www.w3.org/2000/svg" xmlns:xlink="http://www.w3.org/1999/xlink" id="Livello_1" x="0px" y="0px" viewBox="0 0 110 146" style="enable-background:new 0 0 110 146;" xml:space="preserve"> <style type="text/css"> .st0{fill:#9C1A17;} .st1{fill:#FFFFFF;} .st2{fill:#D4AF4B;} </style> <g id="Group_259" transform="translate(321 6307)"> <path id="Path_313" class="st0" d="M-266.1-6307.3c-30.4,0-55,24.7-54.9,55.1c0,11.8,3.9,23.4,10.9,32.8l44,58.7l44-58.9 c18.2-24.2,13.4-58.5-10.8-76.7C-242.4-6303.5-254.1-6307.4-266.1-6307.3z"></path> </g> <path id="Path_641" class="st1" d="M54.4,103.6C27.1,103.7,4.9,81.7,4.8,54.4S26.7,4.9,54,4.8c27.3-0.1,49.5,21.9,49.6,49.2 c0,0.1,0,0.3,0,0.4C103.5,81.6,81.5,103.5,54.4,103.6z"></path> <g> <polygon class="st2" points="32.4,61 32.4,71.8 43.2,71.8 43.2,61 43.2,43.8 32.4,43.8 "></polygon> <rect x="49.6" y="43.8" class="st2" width="10.8" height="10.8"></rect> <rect x="49.6" y="26.6" class="st2" width="10.8" height="10.8"></rect> <polygon class="st2" points="66.8,61 66.8,71.8 77.6,71.8 77.6,61 77.6,43.8 66.8,43.8 "></polygon> <rect x="49.6" y="61" class="st2" width="10.8" height="10.8"></rect> <polygon class="st2" points="15.1,61 15.1,71.8 26,71.8 26,71.8 26,71.8 26,61 26,61 "></polygon> <rect x="84" y="61" class="st2" width="10.8" height="10.8"></rect> </g> </svg> 